<?xml version="1.0" encoding="utf-8"?>
<!-- Generator: Adobe Illustrator 24.1.2, SVG Export Plug-In . SVG Version: 6.00 Build 0)  -->
<svg version="1.1" id="Layer_1" xmlns="http://www.w3.org/2000/svg" xmlns:xlink="http://www.w3.org/1999/xlink" x="0px" y="0px"
	 viewBox="0 0 17.9 15.5" style="enable-background:new 0 0 17.9 15.5;" xml:space="preserve">
<path d="M8.9,15.5c0.1,0,0.2,0,0.3-0.1c0.4-0.1,8.7-3.7,8.7-10.8C17.8,2.1,15.7,0,13,0c-1.7,0-3.3,0.9-4.1,2.3C8.1,0.9,6.6,0,4.8,0
	C2.2,0,0.1,2.1,0,4.7c0,7,8.3,10.6,8.6,10.8C8.7,15.5,8.8,15.5,8.9,15.5z M13,1.4c1.8,0,3.3,1.5,3.4,3.3c0,5.4-6.1,8.7-7.5,9.3
	c-1.4-0.7-7.5-3.9-7.5-9.4C1.5,2.9,3,1.4,4.8,1.4s3.3,1.5,3.4,3.3c0,0.4,0.3,0.7,0.7,0.7l0,0c0.4,0,0.7-0.3,0.7-0.7
	C9.7,2.9,11.2,1.4,13,1.4z"/>
</svg>
